<?xml version="1.0" standalone="no"?>
<!DOCTYPE svg PUBLIC "-//W3C//DTD SVG 20010904//EN"
 "http://www.w3.org/TR/2001/REC-SVG-20010904/DTD/svg10.dtd">
<svg version="1.0" xmlns="http://www.w3.org/2000/svg"
 width="503.000000pt" height="503.000000pt" viewBox="0 0 503.000000 503.000000"
 preserveAspectRatio="xMidYMid meet">
<metadata>
Created by potrace 1.14, written by Peter Selinger 2001-2017
</metadata>
<g transform="translate(0.000000,503.000000) scale(0.100000,-0.100000)"
fill="#000000" stroke="none">
<path d="M2649 4852 c-55 -39 -74 -74 -44 -86 16 -6 125 60 140 84 8 13 -12
40 -30 40 -6 0 -36 -17 -66 -38z"/>
<path d="M2215 4811 c-60 -34 -145 -122 -174 -179 -27 -54 -37 -58 -52 -23
-13 30 -39 48 -192 138 -123 72 -184 60 -320 -66 -85 -79 -117 -152 -117 -269
0 -99 -10 -123 -81 -191 -38 -36 -49 -41 -89 -41 -39 0 -51 -5 -77 -32 -17
-18 -44 -61 -61 -94 l-30 -61 -4 -519 -3 -519 23 -48 c28 -56 88 -107 166
-142 58 -26 116 -33 116 -15 0 6 11 8 25 6 13 -3 27 0 30 5 12 19 33 8 59 -31
14 -22 26 -45 26 -51 0 -12 -80 -94 -80 -82 0 4 -6 1 -13 -8 -7 -9 -15 -16
-19 -15 -4 1 -28 -19 -53 -43 -25 -24 -45 -39 -45 -34 0 5 4 14 10 21 5 7 3 6
-6 -2 -10 -9 -13 -19 -8 -28 5 -7 9 -37 9 -67 1 -50 4 -57 38 -86 20 -18 37
-34 37 -37 0 -6 -99 8 -125 18 -26 9 -208 185 -211 203 -2 8 -5 24 -8 35 -3
12 -4 23 -3 26 7 17 -60 82 -137 131 -49 32 -95 60 -100 62 -6 3 0 16 13 30
18 21 22 33 18 66 -5 50 -16 63 -67 86 -32 15 -45 16 -65 7 -31 -14 -65 -68
-65 -102 0 -54 65 -117 99 -96 5 4 12 2 16 -3 3 -6 25 -23 48 -39 183 -125
188 -130 202 -206 7 -36 25 -57 108 -128 15 -13 27 -26 27 -30 0 -3 -28 -22
-63 -42 -34 -20 -69 -47 -77 -59 -20 -33 -29 -95 -23 -160 5 -51 9 -60 34 -73
l29 -15 0 -123 c0 -122 0 -124 -30 -161 -28 -35 -30 -44 -30 -117 0 -53 -5
-89 -16 -110 -23 -44 -14 -166 16 -237 17 -39 20 -55 11 -64 -21 -21 -12 -62
20 -93 17 -16 37 -41 44 -55 8 -14 29 -32 47 -39 18 -7 58 -24 88 -38 83 -38
152 -63 218 -75 26 -6 21 -20 -18 -53 -37 -31 -171 -128 -255 -184 -129 -85
-146 -132 -73 -194 23 -20 45 -36 48 -36 4 0 99 -54 211 -120 145 -86 210
-119 225 -116 12 3 89 45 171 93 82 49 189 111 237 138 145 83 151 87 154 122
2 18 -2 42 -8 53 -6 12 -10 24 -8 26 3 2 47 -21 99 -52 52 -31 108 -64 124
-74 17 -9 70 -41 119 -71 58 -34 91 -49 94 -41 2 7 12 12 23 12 11 0 43 15 72
34 46 29 125 79 322 200 33 21 67 41 75 46 116 70 195 119 240 150 102 69 92
70 155 -13 30 -41 55 -77 55 -80 0 -4 -18 -18 -40 -32 -23 -14 -57 -51 -76
-81 -32 -49 -45 -60 -110 -90 -85 -38 -99 -58 -63 -86 23 -18 217 -135 342
-207 96 -55 102 -53 294 64 195 120 213 133 217 160 6 35 -13 55 -80 86 -46
22 -69 39 -80 62 -21 41 -64 87 -81 87 -7 0 -13 3 -13 8 0 4 -16 16 -35 26
-19 11 -35 25 -35 32 0 6 25 46 55 89 30 42 55 80 55 85 0 4 3 10 8 12 4 1 28
37 54 78 26 41 59 88 74 104 26 28 28 33 31 161 4 114 2 133 -11 138 -12 5
-23 -7 -41 -44 -14 -27 -30 -47 -34 -45 -14 9 -20 46 -8 46 8 0 8 3 -1 8 -9 6
-11 35 -10 99 3 96 -2 114 -26 94 -16 -14 -60 -5 -51 9 3 5 -1 12 -8 17 -8 4
-26 29 -41 55 -16 27 -32 48 -38 48 -5 0 -7 4 -4 9 4 5 3 11 -2 13 -4 1 -20
24 -35 50 -16 28 -35 48 -45 48 -16 0 -68 -59 -146 -167 -24 -33 -42 -50 -51
-47 -9 4 -18 -3 -24 -18 -5 -12 -22 -54 -37 -93 -27 -70 -44 -99 -44 -79 0 6
-13 30 -30 52 -41 57 -60 48 -60 -27 l-1 -56 -47 -29 c-41 -25 -54 -28 -102
-23 -30 2 -87 17 -127 33 -72 28 -72 28 -52 47 11 10 26 20 32 21 7 1 24 10
39 20 31 21 30 24 -44 74 -59 41 -97 41 -151 2 -56 -39 -94 -46 -103 -17 -5
16 1 27 27 50 46 39 229 158 429 279 91 55 175 110 188 121 24 23 27 62 5 85
-18 19 -70 23 -84 6 -6 -8 -15 -14 -20 -14 -8 0 -116 -67 -129 -80 -3 -3 -23
-14 -45 -25 -22 -11 -71 -41 -110 -66 -38 -25 -115 -74 -170 -109 -55 -34
-101 -66 -103 -71 -2 -5 -10 -9 -18 -9 -8 0 -14 -4 -14 -10 0 -20 -28 -10 -33
12 -4 12 -5 23 -4 24 1 1 22 11 47 22 46 22 81 43 90 53 3 3 25 18 50 34 25
15 84 54 133 87 48 32 87 56 87 53 0 -3 10 0 22 6 30 16 380 245 395 259 11 9
64 33 71 30 1 0 8 4 15 10 6 6 23 19 35 30 13 10 28 36 33 57 5 21 8 323 8
672 0 425 3 637 10 644 6 6 17 12 25 13 17 2 71 39 113 77 l31 29 60 -36 c66
-40 78 -52 84 -81 4 -22 26 -30 48 -15 10 6 15 26 15 60 0 45 3 52 30 70 40
26 58 25 81 -6 68 -93 208 -61 287 66 20 31 22 50 23 169 1 83 -3 145 -10 162
-8 19 -49 53 -121 100 -130 86 -166 94 -200 42 -11 -18 -26 -32 -34 -33 -7 0
-33 13 -57 30 -25 16 -56 33 -69 36 -14 3 -25 9 -26 13 -7 91 -19 121 -48 121
-6 0 -11 4 -11 9 0 13 -144 98 -179 106 -37 8 -80 -10 -159 -69 -85 -63 -113
-120 -106 -215 8 -92 -2 -151 -25 -151 -29 0 -48 31 -62 104 -11 57 -22 80
-57 123 -51 63 -136 133 -160 133 -21 -1 -56 -28 -70 -56 -7 -13 -9 -72 -5
-167 4 -85 2 -147 -3 -147 -5 0 -18 7 -28 15 -38 28 -97 19 -164 -26 -63 -42
-91 -45 -71 -8 14 26 9 414 -5 450 -15 36 -75 88 -195 169 -95 64 -108 70
-155 70 -38 0 -64 -8 -101 -29z m216 -1763 c65 -45 72 -64 39 -105 -40 -51
-20 -98 59 -138 19 -9 39 -21 45 -26 24 -20 87 -59 96 -59 4 0 10 -4 12 -8 5
-13 161 -112 175 -112 7 0 13 -4 13 -9 0 -5 10 -13 23 -17 12 -4 35 -17 50
-30 16 -13 35 -24 43 -24 8 0 14 -4 14 -8 0 -9 62 -47 73 -44 4 1 7 -3 7 -8 0
-6 7 -10 15 -10 8 0 15 -5 15 -11 0 -5 5 -7 10 -4 6 3 10 1 10 -5 0 -6 8 -14
18 -17 9 -4 31 -17 48 -30 17 -13 36 -23 41 -23 13 0 23 -24 23 -56 0 -17 -13
-33 -42 -54 -22 -16 -47 -30 -54 -30 -14 0 -207 -120 -212 -132 -2 -5 -8 -8
-14 -8 -12 0 -283 -167 -303 -186 -7 -8 -18 -14 -24 -14 -5 0 -14 -6 -18 -13
-8 -12 -56 -38 -81 -43 -7 -1 -55 24 -106 55 -51 32 -123 75 -160 96 -67 37
-67 37 -51 62 9 13 17 37 17 52 1 31 -29 80 -49 81 -7 0 -13 5 -13 11 0 5 -4
7 -10 4 -5 -3 -10 -1 -10 4 0 6 -7 11 -15 11 -8 0 -15 5 -15 10 0 6 -7 10 -14
10 -8 0 -34 13 -58 28 -46 30 -92 53 -145 72 -18 7 -33 15 -33 19 0 4 26 22
57 41 32 19 70 45 84 58 18 14 30 19 34 12 8 -12 229 -161 275 -185 16 -8 40
-15 53 -15 25 0 106 39 197 95 30 19 60 34 66 35 34 1 13 60 -21 60 -8 0 -20
9 -28 21 -11 15 -16 17 -20 7 -2 -7 -5 6 -5 30 -1 61 -10 83 -49 120 -29 28
-41 33 -70 30 -30 -4 -39 0 -57 25 -20 27 -21 40 -21 228 0 225 -7 213 86 147z"/>
<path d="M2790 2491 c-13 -24 -13 -71 0 -91 7 -12 -1 -22 -38 -45 -26 -16
-102 -70 -170 -119 l-122 -88 0 -68 c0 -53 4 -69 16 -74 18 -7 64 3 64 13 0 4
12 13 28 20 58 27 299 189 306 206 7 19 -3 72 -20 106 -11 22 -10 27 7 37 22
14 27 90 7 110 -19 19 -66 15 -78 -7z"/>
<path d="M3183 4700 c-29 -18 -53 -47 -53 -67 0 -4 10 -20 23 -35 l23 -27 40
19 c76 37 90 62 58 108 -19 27 -49 28 -91 2z m19 -62 c-6 -6 -15 -8 -19 -4 -4
4 -1 11 7 16 19 12 27 3 12 -12z"/>
<path d="M3689 3498 c-56 -38 -64 -47 -67 -80 -3 -33 -1 -38 17 -38 12 0 21 4
21 9 0 9 88 69 123 83 23 10 22 45 -2 58 -26 13 -20 16 -92 -32z"/>
<path d="M3982 3488 c-37 -18 -46 -85 -16 -119 24 -26 49 -24 79 8 38 42 33
88 -12 112 -25 13 -21 13 -51 -1z"/>
<path d="M770 3353 c-22 -20 -31 -38 -32 -61 -1 -35 25 -72 51 -72 18 0 82 37
93 54 15 22 8 57 -17 81 -31 32 -57 31 -95 -2z"/>
<path d="M3874 3335 c-10 -24 3 -44 31 -51 43 -11 55 13 22 42 -32 28 -45 30
-53 9z"/>
<path d="M3846 3263 c-15 -15 -4 -43 24 -63 31 -22 60 -21 60 2 0 23 -71 74
-84 61z"/>
<path d="M3840 3125 c-14 -17 -5 -51 15 -59 27 -10 16 -24 -42 -57 -32 -18
-77 -46 -101 -62 l-43 -29 1 -136 c0 -76 -2 -149 -6 -164 -3 -14 -2 -34 3 -43
6 -10 6 -38 2 -66 -13 -80 1 -102 104 -170 50 -32 101 -59 113 -59 27 0 66 17
121 53 24 15 46 27 49 27 4 0 15 9 25 21 13 15 16 31 13 57 -7 46 -6 59 2 98
8 40 -10 52 -39 27 l-22 -18 20 25 c11 14 24 28 28 31 4 3 9 26 10 50 2 36 -1
44 -15 43 -10 -1 -18 2 -18 7 0 5 3 9 8 9 11 0 34 57 30 77 -2 10 -13 19 -26
21 l-22 3 20 17 c29 23 29 76 2 105 -12 12 -53 40 -92 62 -65 37 -69 42 -64
68 5 22 0 33 -23 53 -33 28 -37 29 -53 9z m199 -691 c-43 -32 -84 -54 -49 -25
14 11 32 27 40 35 8 8 21 15 29 15 8 1 -1 -11 -20 -25z m-79 -49 c0 -2 -10 -9
-22 -15 -22 -11 -22 -10 -4 4 21 17 26 19 26 11z"/>
<path d="M4070 2240 c-6 -15 -8 -39 -4 -53 5 -23 3 -27 -14 -27 -27 0 -63 -51
-69 -100 -7 -51 12 -97 48 -116 59 -30 69 -51 69 -139 0 -45 -3 -84 -6 -88 -3
-3 -17 -1 -31 4 -32 12 -70 -10 -79 -46 -13 -51 5 -95 62 -153 43 -43 54 -60
50 -78 -8 -30 2 -54 20 -47 10 3 12 17 8 49 -4 40 -2 48 26 75 17 17 37 44 46
61 14 26 14 32 1 52 -17 26 -20 51 -18 196 l2 105 34 25 c34 24 34 26 35 98 0
68 -2 73 -25 84 -20 9 -25 19 -25 47 0 58 -23 82 -75 80 -37 -2 -46 -7 -55
-29z m65 -21 c10 -14 1 -21 -19 -13 -9 3 -13 10 -10 15 7 12 21 11 29 -2z"/>
<path d="M3563 2210 c-18 -11 -39 -36 -48 -56 -19 -47 -19 -137 0 -174 14 -27
105 -100 105 -84 0 3 7 1 15 -6 8 -7 15 -10 15 -7 0 3 53 -28 117 -69 64 -41
121 -73 127 -71 6 2 11 14 11 28 0 19 -17 34 -85 76 -47 30 -116 70 -153 90
-88 47 -107 71 -107 139 0 45 4 56 26 73 29 23 44 20 44 -8 0 -30 25 -44 49
-29 47 29 8 118 -52 118 -18 0 -47 -9 -64 -20z"/>
<path d="M3836 2043 c-4 -9 -2 -20 5 -23 6 -4 10 -10 10 -14 -2 -16 0 -18 12
-8 7 6 13 22 15 36 1 20 -3 26 -17 26 -10 0 -22 -8 -25 -17z"/>
<path d="M3290 1892 c-8 -4 -28 -16 -45 -26 -16 -10 -61 -39 -100 -63 -218
-139 -285 -184 -285 -194 0 -17 20 -49 31 -49 6 0 22 -9 36 -20 27 -21 78 -27
88 -10 3 5 43 30 88 55 92 52 109 62 152 90 16 11 41 26 55 33 109 57 150 87
147 108 -8 59 -106 103 -167 76z m-132 -165 c23 -18 12 -25 -18 -11 -16 9 -30
19 -30 24 0 10 28 3 48 -13z"/>
<path d="M3033 1518 c-65 -38 -95 -70 -80 -84 11 -11 182 91 182 108 0 25 -31
18 -102 -24z"/>
<path d="M4100 1280 c1 -41 1 -110 1 -152 -1 -76 -2 -78 -25 -78 -38 0 -56
-10 -71 -41 -23 -43 -19 -86 10 -114 39 -40 103 -26 131 26 19 38 18 50 -11
94 -21 30 -25 48 -24 89 3 64 8 86 21 86 13 0 152 91 156 102 2 4 10 8 18 8
16 0 19 36 4 45 -6 4 -49 -19 -96 -51 -46 -31 -87 -54 -90 -51 -4 3 -8 27 -11
54 -7 75 -15 65 -13 -17z"/>
<path d="M4270 1251 c0 -5 -17 -17 -37 -26 -40 -19 -53 -32 -53 -52 0 -21 22
-14 79 25 63 43 74 62 37 62 -14 0 -26 -4 -26 -9z"/>
<path d="M803 1086 c0 -17 4 -23 13 -19 8 3 14 14 14 24 0 10 -6 19 -14 19 -8
0 -13 -10 -13 -24z"/>
</g>
</svg>
